<?xml version="1.0" encoding="UTF-8" standalone="no"?>
<svg
   xmlns:dc="http://purl.org/dc/elements/1.1/"
   xmlns:cc="http://creativecommons.org/ns#"
   xmlns:rdf="http://www.w3.org/1999/02/22-rdf-syntax-ns#"
   xmlns:svg="http://www.w3.org/2000/svg"
   xmlns="http://www.w3.org/2000/svg"
   xmlns:sodipodi="http://sodipodi.sourceforge.net/DTD/sodipodi-0.dtd"
   xmlns:inkscape="http://www.inkscape.org/namespaces/inkscape"
   width="400px"
   height="124px"
   viewBox="0 0 400 124"
   version="1.1"
   id="svg104"
   sodipodi:docname="SPARK.svg"
   inkscape:version="0.92.5 (2060ec1f9f, 2020-04-08)">
  <metadata
     id="metadata108">
    <rdf:RDF>
      <cc:Work
         rdf:about="">
        <dc:format>image/svg+xml</dc:format>
        <dc:type
           rdf:resource="http://purl.org/dc/dcmitype/StillImage" />
      </cc:Work>
    </rdf:RDF>
  </metadata>
  <sodipodi:namedview
     pagecolor="#ffffff"
     bordercolor="#666666"
     borderopacity="1"
     objecttolerance="10"
     gridtolerance="10"
     guidetolerance="10"
     inkscape:pageopacity="0"
     inkscape:pageshadow="2"
     inkscape:window-width="1078"
     inkscape:window-height="1168"
     id="namedview106"
     showgrid="false"
     inkscape:zoom="1.47"
     inkscape:cx="200"
     inkscape:cy="62"
     inkscape:window-x="842"
     inkscape:window-y="0"
     inkscape:window-maximized="0"
     inkscape:current-layer="svg104" />
  <title
     id="title87">SPARK</title>
  <desc
     id="desc89">Created with Sketch.</desc>
  <defs
     id="defs91" />
  <g
     id="g102"
     stroke="none"
     stroke-width="1"
     fill="none"
     fill-rule="evenodd"
     style="fill:#853577;fill-opacity:0.99004978">
    <g
       id="Products-:-SPARK"
       transform="translate(-402.000000, -248.000000)"
       fill="#FFFFFF"
       style="fill:#853577;fill-opacity:0.99004978">
      <g
         id="SPARK"
         transform="translate(402.000000, 248.000000)"
         style="fill:#853577;fill-opacity:0.99004978">
        <g
           transform="translate(23.000000, 35.000000)"
           id="g98"
           style="fill:#853577;fill-opacity:0.99004978">
          <path
             d="M0,50.8224703 C1.9490011,46.6127231 3.86552967,42.4729978 5.65671429,38.6042835 C10.7048934,40.1408769 15.4900451,41.8142725 20.3882011,43.0364154 C27.3652484,44.7772396 34.488422,45.1539319 41.6382231,44.2306791 C42.8397066,44.0750747 44.1132791,43.6944923 45.1147319,43.0493824 C45.8057473,42.6046132 46.4590945,41.512789 46.4357143,40.7315253 C46.4155813,40.0728 45.4953099,39.0432176 44.8010473,38.870756 C41.4557275,38.042811 38.0727396,37.3075802 34.6644231,36.8025143 C27.8237604,35.7891407 20.9480275,34.9495253 14.4165033,32.5460857 C12.411,31.8082615 10.4730396,30.787756 8.65457802,29.6550857 C1.76975275,25.3655912 1.26383077,14.2483055 7.85055824,8.20696484 C12.344756,4.08474505 17.8202736,2.1144044 23.6348044,1.25533846 C37.1751989,-0.745474725 50.3635912,0.611525275 62.9570868,6.2871956 C63.1986824,6.39676703 63.4298868,6.53097582 63.8565758,6.75271209 C61.929656,10.8477011 60.0183231,14.9115692 58.1290714,18.9281077 C54.2849736,17.7701516 50.6103824,16.5467121 46.8714956,15.5625143 C40.115911,13.7847341 33.2362813,13.2816132 26.2891088,14.101778 C25.1902385,14.2314484 24.0225264,14.5601626 23.0996571,15.1365473 C22.4300736,15.5547341 21.6734637,16.5869099 21.7526967,17.2501736 C21.8429703,18.0029099 22.7021934,19.0584264 23.4341242,19.2710857 C26.2222154,20.0815253 29.0681077,20.7713714 31.9386791,21.2025253 C39.4145044,22.324822 46.9435846,23.1683275 54.0985813,25.7915582 C55.7618242,26.4010088 57.3744099,27.1861626 58.9324418,28.0335582 C66.8966538,32.3626022 66.8206681,44.7299099 59.9222044,50.5942505 C55.5293209,54.3281077 50.346056,56.2355582 44.7945527,57.1341736 C29.4785604,59.6115253 14.7756495,57.2625473 0.600092308,51.1699868 C0.453965934,51.1070967 0.322127473,51.0104923 0,50.8224703"
             id="Fill-1"
             style="fill:#853577;fill-opacity:0.99004978" />
          <path
             d="M354.395358,1.79872198 C346.144089,9.56597473 338.165589,17.0764802          330.085125,24.6829418 C338.397443,35.3496231 346.653908,45.9449857          355.070137,56.7445791 C354.391461,56.7970956 353.942691,56.8612824          353.493271,56.8619308 C347.108523,56.8684143 340.723125,56.8359967          334.339026,56.8949967 C333.231713,56.904722 332.569274,56.5163593          331.916576,55.6845242 C327.31392,49.8175901 322.671647,43.9830736          318.036519,38.1420736 C317.743616,37.7725132 317.409149,37.4353703          317.200026,37.2019637 C314.454149,39.8394582 311.741394,42.3900736          309.115666,45.0282165 C308.737686,45.4081505 308.657803,46.2049747          308.64936,46.8111835 C308.606497,50.0963813 308.629227,53.3815791          308.629227,56.7653264 L290.100403,56.7653264 L290.100403,1.79353516          L308.588961,1.79353516 L308.588961,24.8988429 L309.157231,25.2560846          C309.517676,24.7549088 309.826165,24.2044582 310.247009,23.7590407          C316.855817,16.7652714 323.465925,9.7727989 330.124092,2.82635934          C330.657941,2.26942527 331.542492,1.73453516 332.270526,1.72610659          C339.250171,1.64376593 346.230466,1.67618352 353.210111,1.68072198          C353.47119,1.68072198 353.73162,1.73064505 354.395358,1.79872198"
             id="Fill-3"
             style="fill:#853577;fill-opacity:0.99004978" />
          <path
             d="M255.727259,26.1650736 C254.718013,26.5177769 253.641224,26.8665901          252.590413,26.8795571 C247.036311,26.9502275 241.480262,26.9126231          235.756654,26.9126231 L235.756654,15.1126231 C236.117749,15.0633484          236.422991,14.9848978 236.728232,14.9855462 C241.701725,14.9952714          246.676516,14.9615571 251.64806,15.0678868 C253.025544,15.097711          254.443295,15.4043813 255.757133,15.840722 C258.070476,16.6083703          259.428477,18.6623484 259.433024,21.0255901 C259.438219,23.4445901          258.129576,25.3254582 255.727259,26.1650736 M273.082526,47.4958429          C270.461343,44.4271945 267.84146,41.3572495 265.328736,38.4143813          C267.715466,36.9231725 270.148958,35.7023264 272.234993,34.0464363          C280.268696,27.6679527 280.811637,14.9284912 273.439724,7.79273297          C269.074766,3.56677692 263.56288,1.95108462 257.73471,1.84605165          C244.69764,1.6107 231.655374,1.71119451 218.615056,1.68072198          C218.193563,1.68007363 217.77207,1.73972198 217.194059,1.78316154          L217.194059,56.7523593 L235.824197,56.7523593 L235.824197,39.6857989          C238.881161,39.6857989 241.7894,39.7227549 244.696341,39.6644033          C245.656878,39.6449527 246.26931,39.9490297 246.875897,40.7011176          C250.944705,45.7498319 255.081055,50.744733 259.15376,55.7908538          C259.790871,56.5798978 260.442919,56.9008319 261.474247,56.8917549          C267.479716,56.8398868 273.486484,56.8664692 279.492603,56.8664692          L281.087004,56.8664692 C278.248255,53.543667 275.664741,50.5204033          273.082526,47.4958429"
             id="Fill-7"
             style="fill:#853577;fill-opacity:0.99004978" />
          <path
             d="M161.874965,36.8110077 C164.737094,30.7294692 167.520639,24.8158538          170.504864,18.4749747 C173.463761,24.749722 176.243409,30.6425901          179.152947,36.8110077 L161.874965,36.8110077 Z M208.182088,55.8226231          C199.448926,38.0558429 190.703425,20.2948978 181.99884,2.51385385          C181.556564,1.61005165 180.996088,1.45055714 180.112186,1.45444725          C174.26843,1.48297473 168.424024,1.49659011 162.580268,1.44537033          C161.465162,1.4349967 160.886501,1.74944725 160.374085,2.80042527          C151.842253,20.3059198 143.256517,37.7848319 134.685068,55.2715242          C134.459059,55.7325022 134.260977,56.207744 133.964178,56.8645242          C140.011862,56.8645242 145.79327,56.8852714 151.57338,56.821733          C151.99942,56.8171945 152.589121,56.2913813 152.811883,55.8582824          C153.872435,53.7971725 154.879084,51.7036451 155.806499,49.5796451          C156.193572,48.6939967 156.717029,48.434656 157.650289,48.4385462          C166.25421,48.4709637 174.858131,48.4703154 183.462052,48.4378978          C184.347902,48.4340077 184.812909,48.6939967 185.166859,49.5206451          C186.015691,51.502656 187.043772,53.4094582 187.86078,55.4031396          C188.314746,56.5118209 188.9012,56.9520516 190.135806,56.8975901          C192.56605,56.7906121 195.004736,56.8664692 197.439526,56.8664692          L208.584098,56.8664692 C208.406798,56.4016011 208.319122,56.1001176          208.182088,55.8226231 L208.182088,55.8226231 Z"
             id="Fill-12"
             style="fill:#853577;fill-opacity:0.99004978" />
          <path
             d="M114.736545,26.0088209 C113.84485,26.6526341 112.7213,27.2795901          111.667242,27.345722 C106.238485,27.6854582 100.797388,27.841711          95.1991243,28.0679857 L95.1991243,15.3038868 C95.3244682,15.1969088          95.4050001,15.0685352 95.4829342,15.0698319 C100.827912,15.1631945          106.182632,15.1054912 111.513322,15.4374473 C114.146844,15.6014802          116.219241,17.1795681 116.830374,19.9454363 C117.35448,22.3184033          116.801798,24.5182604 114.736545,26.0088209 M129.38815,7.45688681          C124.665345,3.76971099 119.314522,1.94524945 113.483106,1.83632637          C101.691032,1.61653516 89.8931133,1.71054615 78.0977924,1.68072198          C77.6756496,1.67942527 77.2528573,1.73712857 76.7605737,1.77278791          L76.7605737,56.7834802 L95.2095155,56.7834802 L95.2095155,54.9713374          C95.2095155,50.8659747 95.2653682,46.7593154 95.1783419,42.6552495          C95.1491166,41.2619418 95.5024177,40.7990187 96.9701759,40.8067989          C102.595717,40.8392165 108.227752,40.8606121 113.846798,40.6330407          C118.889132,40.4288099 123.591803,38.9564033 127.855446,36.1289418          C138.14664,29.3043923 137.412111,13.7219088 129.38815,7.45688681"
             id="Fill-16"
             style="fill:#853577;fill-opacity:0.99004978" />
        </g>
      </g>
    </g>
  </g>
</svg>
